<svg width="96" height="96" xmlns="http://www.w3.org/2000/svg" xmlns:xlink="http://www.w3.org/1999/xlink" overflow="hidden"><defs><clipPath id="clip0"><rect x="723" y="60" width="96" height="96"/></clipPath></defs><g clip-path="url(#clip0)" transform="translate(-723 -60)"><path d="M795.5 123.1C793.9 121.5 791.5 120.7 789.3 121.2L784.8 116.8C788.8 111.6 791 105.2 791 98.6 791.1 81.9 777.6 68.4 761 68.3 744.4 68.2 730.9 81.7 730.8 98.3 730.7 114.9 744.2 128.4 760.8 128.5 767.4 128.5 773.9 126.3 779.2 122.3L783.6 126.7C783.2 129 783.9 131.3 785.5 133L798 145.5C800.7 148.2 805.2 148.2 807.9 145.5 810.6 142.8 810.6 138.3 807.9 135.6L795.5 123.1ZM761 122.5C747.7 122.5 737 111.8 737 98.5 737 85.2 747.7 74.5 761 74.5 774.3 74.5 785 85.2 785 98.5 785 111.7 774.2 122.5 761 122.5Z"/><path d="M782.5 97 776.8 97C776.3 97.1 775.8 97.4 775.5 97.8L771.7 101.9 768.5 90.8C768.2 89.9 767.2 89.3 766.3 89.6 765.8 89.8 765.3 90.1 765.1 90.7L759.1 106.6 755 84.6C754.8 83.6 753.9 83 753 83.2 752.4 83.3 751.9 83.8 751.6 84.4L747.3 97 739.5 97 739.5 101 748.6 101C749.4 100.9 750.1 100.3 750.3 99.5L752.8 91.9 756.8 113.4C756.9 114.2 757.6 114.8 758.4 114.8L758.6 114.8C759.3 114.8 760 114.4 760.3 113.7L766.7 96.9 769.3 105.9C769.6 106.8 770.5 107.4 771.5 107.1 771.8 107 772.1 106.8 772.3 106.6L777.7 101 782.6 101 782.6 97Z"/></g></svg>