<svg width="96" height="96" xmlns="http://www.w3.org/2000/svg" xmlns:xlink="http://www.w3.org/1999/xlink" overflow="hidden"><defs><clipPath id="clip0"><rect x="959" y="61" width="96" height="96"/></clipPath></defs><g clip-path="url(#clip0)" transform="translate(-959 -61)"><path d="M975 98 990 98 990 105 997 98 1003 98 1007 105 1011 98 1017 98 1024 105 1024 98 1040 98C1042.21 98 1044 96.2091 1044 94L1044 73C1044 70.7909 1042.21 69 1040 69L975 69C972.791 69 971 70.7909 971 73L971 94C971 96.2091 972.791 98 975 98ZM973 73C973 71.8954 973.895 71 975 71L1040 71C1041.1 71 1042 71.8954 1042 73L1042 94C1042 95.1046 1041.1 96 1040 96L1022 96 1022 100.172 1018.41 96.586 1017.83 96 1009.84 96 1009.26 97.008 1007 100.969 1004.74 97.008 1004.16 96 996.172 96 995.586 96.586 992 100.172 992 96 975 96C973.895 96 973 95.1046 973 94Z"/><path d="M981 78 1028 78 1028 80 981 80Z"/><path d="M981 83 1034 83 1034 85 981 85Z"/><path d="M981 88 1018 88 1018 90 981 90Z"/><path d="M1021.26 117.74C1021.26 122.014 1024.73 125.477 1029 125.476 1033.28 125.475 1036.74 122.01 1036.74 117.736 1036.74 113.463 1033.27 110 1029 110 1024.73 110.001 1021.26 113.466 1021.26 117.74ZM1034.74 117.74C1034.74 120.909 1032.17 123.477 1029 123.476 1025.83 123.475 1023.26 120.905 1023.26 117.736 1023.26 114.568 1025.83 112 1029 112 1032.17 112.004 1034.74 114.572 1034.74 117.74Z"/><path d="M979.262 117.945C979.263 122.219 982.728 125.682 987.002 125.681 991.276 125.68 994.739 122.215 994.738 117.941 994.737 113.668 991.273 110.205 987 110.205 982.726 110.206 979.261 113.671 979.262 117.945ZM992.738 117.945C992.737 121.114 990.167 123.682 986.998 123.681 983.829 123.68 981.261 121.11 981.262 117.941 981.263 114.773 983.832 112.205 987 112.205 990.168 112.209 992.735 114.777 992.738 117.945Z"/><path d="M1043.13 131.619C1040.86 129.866 1038.25 128.591 1035.47 127.873 1033.38 127.228 1031.19 126.897 1029 126.892 1026.81 126.927 1024.64 127.256 1022.54 127.869 1019.79 128.668 1017.2 129.934 1014.88 131.612 1014.72 131.734 1014.58 131.864 1014.44 132.002 1014.64 132.058 1014.84 132.102 1015.05 132.162 1015.66 132.335 1016.24 132.527 1016.81 132.728 1018.74 131.445 1020.85 130.458 1023.08 129.8 1025 129.238 1026.99 128.935 1029 128.9 1031 128.906 1033 129.209 1034.91 129.8 1037.44 130.446 1039.81 131.596 1041.88 133.182 1042.56 133.714 1042.98 134.525 1043 135.394L1043 141.794 1045 141.794 1045 135.394C1044.98 133.919 1044.29 132.533 1043.13 131.619Z"/><path d="M999.058 132.8C999.701 132.558 1000.35 132.339 1000.99 132.156 1001.13 132.119 1001.25 132.093 1001.39 132.056 1001.3 131.979 1001.22 131.899 1001.13 131.828 998.861 130.074 996.256 128.799 993.476 128.08 991.378 127.436 989.195 127.105 987 127.1 984.812 127.136 982.639 127.464 980.538 128.076 977.788 128.875 975.195 130.141 972.875 131.82 971.714 132.734 971.025 134.122 971 135.6L971 142 973 142 973 135.6C973.019 134.744 973.417 133.94 974.088 133.408 976.209 131.887 978.572 130.735 981.076 130 983.002 129.438 984.994 129.135 987 129.1 989.005 129.107 990.997 129.41 992.913 130 995.103 130.586 997.179 131.532 999.058 132.8Z"/><path d="M1022.13 137.825C1019.86 136.071 1017.25 134.796 1014.47 134.077 1012.38 133.434 1010.19 133.104 1008 133.1 1005.81 133.136 1003.64 133.464 1001.54 134.076 998.788 134.875 996.195 136.141 993.875 137.82 992.714 138.734 992.025 140.122 992 141.6L992 148 994 148 994 141.6C994.019 140.744 994.417 139.94 995.088 139.408 997.209 137.887 999.572 136.735 1002.08 136 1004 135.438 1005.99 135.135 1008 135.1 1010 135.107 1012 135.41 1013.91 136 1016.44 136.646 1018.81 137.797 1020.88 139.382 1021.56 139.915 1021.98 140.729 1022 141.6L1022 148 1024 148 1024 141.6C1023.98 140.125 1023.29 138.739 1022.13 137.825Z"/><path d="M1000.26 123.945C1000.26 128.219 1003.73 131.682 1008 131.681 1012.28 131.68 1015.74 128.215 1015.74 123.941 1015.74 119.668 1012.27 116.205 1008 116.205 1003.73 116.206 1000.26 119.671 1000.26 123.945ZM1013.74 123.945C1013.74 127.114 1011.17 129.682 1008 129.681 1004.83 129.68 1002.26 127.11 1002.26 123.941 1002.26 120.773 1004.83 118.205 1008 118.205 1011.17 118.209 1013.73 120.777 1013.74 123.945Z"/></g></svg>