<svg width="96" height="96" xmlns="http://www.w3.org/2000/svg" xmlns:xlink="http://www.w3.org/1999/xlink" overflow="hidden"><defs><clipPath id="clip0"><rect x="508" y="46" width="96" height="96"/></clipPath></defs><g clip-path="url(#clip0)" transform="translate(-508 -46)"><path d="M581 93C579.3 93 578 91.7 578 90 578 88.3 579.3 87 581 87 582.7 87 584 88.3 584 90 584 91.7 582.7 93 581 93ZM575 99C573.3 99 572 97.7 572 96 572 94.3 573.3 93 575 93 576.7 93 578 94.3 578 96 578 97.7 576.7 99 575 99ZM569 93C567.3 93 566 91.7 566 90 566 88.3 567.3 87 569 87 570.7 87 572 88.3 572 90 572 91.7 570.7 93 569 93ZM575 81C576.7 81 578 82.3 578 84 578 85.7 576.7 87 575 87 573.3 87 572 85.7 572 84 572 82.3 573.3 81 575 81ZM543 92 539 92 539 96C539 97.1 538.1 98 537 98 535.9 98 535 97.1 535 96L535 92 531 92C529.9 92 529 91.1 529 90 529 88.9 529.9 88 531 88L535 88 535 84C535 82.9 535.9 82 537 82 538.1 82 539 82.9 539 84L539 88 543 88C544.1 88 545 88.9 545 90 545 91.1 544.1 92 543 92ZM579 66C567.2 66 573.2 72 556 72 538.8 72 544.8 66 533 66 520.4 66 504.4 122 521 122 536.3 122 530.5 108 556 108 581.5 108 575.7 122 591 122 607.6 122 591.6 66 579 66Z"/></g></svg>