<svg width="96" height="96" xmlns="http://www.w3.org/2000/svg" xmlns:xlink="http://www.w3.org/1999/xlink" overflow="hidden"><defs><clipPath id="clip0"><rect x="287" y="53" width="96" height="96"/></clipPath></defs><g clip-path="url(#clip0)" transform="translate(-287 -53)"><path d="M360.9 55 360.9 55C361.6 57.6 363.5 59.8 366 61L366 61C363.5 62.2 361.7 64.4 360.9 67L360.9 67C360.2 64.4 358.3 62.2 355.8 61L355.8 61C358.3 59.8 360.2 57.6 360.9 55Z"/><path d="M296.9 77 296.9 77C297.6 79.6 299.5 81.8 302 83L302 83C299.5 84.2 297.7 86.4 296.9 89L296.9 89C296.2 86.4 294.3 84.2 291.8 83L291.8 83C294.3 81.8 296.2 79.6 296.9 77Z"/><path d="M306.8 57 306.8 57C307.4 59.2 309 61 311 62L311 62C308.9 63 307.4 64.8 306.8 67L306.8 67C306.2 64.8 304.6 63 302.6 62L302.6 62C304.6 61 306.2 59.2 306.8 57Z"/><path d="M372.8 73 372.8 73C373.4 75.2 375 77 377 78L377 78C374.9 79 373.4 80.8 372.8 83L372.8 83C372.2 80.8 370.6 79 368.6 78L368.6 78C370.6 77 372.2 75.2 372.8 73Z"/><path d="M335 92.5C334.2 92.5 333.5 91.8 333.5 91L333.5 81C333.5 80.2 334.2 79.5 335 79.5 335.8 79.5 336.5 80.2 336.5 81L336.5 91C336.5 91.8 335.8 92.5 335 92.5Z"/><path d="M335 76.5C334.2 76.5 333.5 75.8 333.5 75L333.5 67C333.5 66.2 334.2 65.5 335 65.5 335.8 65.5 336.5 66.2 336.5 67L336.5 75C336.5 75.8 335.8 76.5 335 76.5Z"/><path d="M335 62.5C334.2 62.5 333.5 61.8 333.5 61L333.5 57C333.5 56.2 334.2 55.5 335 55.5 335.8 55.5 336.5 56.2 336.5 57L336.5 61C336.5 61.8 335.8 62.5 335 62.5Z"/><path d="M346 85.5C345.9 85.5 345.8 85.5 345.7 85.5 344.9 85.3 344.4 84.5 344.6 83.7L346.3 75.9C346.5 75.1 347.3 74.6 348.1 74.8 348.9 75 349.4 75.8 349.2 76.6L347.5 84.4C347.3 85 346.7 85.5 346 85.5Z"/><path d="M349 71.8C348.9 71.8 348.8 71.8 348.7 71.8 347.9 71.6 347.4 70.8 347.6 70L347.6 70 348.9 64.1C349.1 63.3 349.8 62.8 350.7 62.9 351.5 63.1 352 63.8 351.9 64.7 351.9 64.7 351.9 64.7 351.9 64.8L350.6 70.7C350.3 71.3 349.7 71.8 349 71.8Z"/><path d="M356 83.5C355.2 83.5 354.5 82.8 354.5 82 354.5 81.7 354.6 81.4 354.8 81.1L361.6 71.2C362.1 70.5 363 70.4 363.7 70.9 364.3 71.4 364.5 72.2 364.1 72.9L357.3 82.8C357 83.3 356.5 83.5 356 83.5Z"/><path d="M324 85.5C323.3 85.5 322.7 85 322.5 84.3L320.4 74.5C320.2 73.7 320.8 72.9 321.6 72.7 322.4 72.5 323.2 73 323.3 73.8L325.4 83.6C325.6 84.4 325.1 85.2 324.3 85.4 324.2 85.5 324.1 85.5 324 85.5Z"/><path d="M320.6 69.9C319.9 69.9 319.3 69.4 319.1 68.7L318.3 64.8C318.1 64 318.6 63.2 319.4 63 320.2 62.8 321 63.3 321.2 64.1 321.2 64.1 321.2 64.1 321.2 64.2L322 68.1C322.2 68.9 321.7 69.7 320.9 69.9L320.9 69.9C320.8 69.9 320.7 69.9 320.6 69.9L320.6 69.9Z"/><path d="M314 83.5C313.5 83.5 313 83.3 312.8 82.9L306 73C305.6 72.3 305.8 71.4 306.5 70.9 307.2 70.5 308 70.6 308.5 71.3L315.3 81.2C315.8 81.9 315.6 82.8 314.9 83.3 314.6 83.4 314.3 83.5 314 83.5Z"/><path d="M378.8 134.9 375.8 102.5C375.7 101.5 374.8 100.7 373.8 100.7 373.4 100.7 372.8 100.7 372.3 100.7L371.8 94.9 370 94.8C368.5 94.7 367 94.8 365.6 94.9L365.1 89.5 363.6 89.2C353.1 87.9 342.6 91.4 335 98.8 327.4 91.4 316.9 87.9 306.4 89.2L304.9 89.5 304.4 94.9C302.9 94.8 301.5 94.7 300 94.8L298.3 94.9 297.8 100.7C297.2 100.7 296.7 100.7 296.3 100.7 295.3 100.7 294.4 101.5 294.3 102.5L291.3 134.9C291.1 136 291.9 137 293 137.1 293.1 137.1 293.2 137.1 293.3 137.1 299.4 136.9 316.5 137.3 330.4 146.4 331.1 146.8 331.8 147.1 332.6 147.1L337.6 147.1C338.4 147.1 339.1 146.9 339.7 146.5 354.3 137.4 370.9 137 376.8 137.2 377.9 137.2 378.8 136.4 378.9 135.3 378.8 135 378.8 135 378.8 134.9ZM337 102.4C343.4 95.8 352.3 92.4 361.4 92.9L364.1 123.9C359.4 124.8 347.2 127.8 337 136.6L337 102.4ZM308.6 93C317.7 92.5 326.6 95.9 333 102.5L333 136.7C322.8 127.9 310.6 124.9 305.9 124L308.6 93ZM299 130 302 98.7C302.6 98.7 303.3 98.8 304.1 98.8L301.6 127.4 303.5 127.6C303.7 127.6 320.6 129.8 332.4 141.5L332.4 141.5C319.3 131.5 304.7 130.2 299 130ZM337.6 141.7 337.6 141.7C349.6 129.9 366.4 127.6 366.5 127.6L368.4 127.4 365.9 98.8C366.7 98.7 367.4 98.7 368 98.7L371 130C365.3 130.2 350.7 131.6 337.6 141.7Z"/></g></svg>