<svg width="96" height="96" xmlns="http://www.w3.org/2000/svg" xmlns:xlink="http://www.w3.org/1999/xlink" overflow="hidden"><defs><clipPath id="clip0"><rect x="85" y="82" width="96" height="96"/></clipPath></defs><g clip-path="url(#clip0)" transform="translate(-85 -82)"><path d="M167 96 165 96 165 162 99.03 162 99.03 164 167 164 167 96Z"/><path d="M103 156.02 114 156.02 114 148.02 103 148.02ZM105 150.02 112 150.02 112 154.02 105 154.02Z"/><path d="M110 145.017 122 145.017 122 137.017 110 137.017ZM112 139.017 120 139.017 120 143.017 112 143.017Z"/><path d="M137 134.014 137 126.014 115 126.014 115 134.014ZM117 128.014 135 128.014 135 132.014 117 132.014Z"/><path d="M112 123.011 147 123.011 147 115.011 112 115.011ZM114 117.011 145 117.011 145 121.011 114 121.011Z"/><path d="M159 104.007 138 104.007 138 112.007 159 112.007ZM157 110.007 140 110.007 140 106.007 157 106.007Z"/></g></svg>